<?xml version="1.0" standalone="no"?>
<!DOCTYPE svg PUBLIC "-//W3C//DTD SVG 1.1//EN" "http://www.w3.org/Graphics/SVG/1.1/DTD/svg11.dtd">
<svg xmlns="http://www.w3.org/2000/svg" id="Camada_2" data-name="Camada 2" viewBox="0 0 108.67 43.41" width="108.66999816894531" height="43.40999984741211">
  <defs>
    <style>
      .cls-1 {
        fill: #5daad8;
      }

      .cls-1, .cls-2, .cls-3 {
        fill-rule: evenodd;
        stroke-width: 0px;
      }

      .cls-2 {
        fill: #272c61;
      }

      .cls-3 {
        fill: #20305c;
      }
    </style>
  </defs>
  <g id="Primalith_Block" data-name="Primalith Block">
    <g>
      <path class="cls-1" d="m25.13,6.29c-2.52,1.52-4.65,1.72-6.25.15,2.8.47,4.98-1.77,7.22-3.74C28.19.89,29.88-.02,32.77,0c7.19.06,7.04,10.1,4.01,16.66.29-4.15.28-7.7-.35-10.01-1.79-6.57-7.6-2.17-11.29-.36"/>
      <path class="cls-3" d="m102.08,35.96c-.54-.55-3.42-1.58-4.19-1.91-1.49-.67-2.77-1.25-4.34-1.79-3.72-1.27-6.75-1-10.23.31-7.14,2.7-10.98,6.97-18.36,4.82-3.15-.91-5.68-2.43-8.9-3.28-7.29-1.93-14.58,2.71-21.98.19-3.9-1.32-7.11-5.96-10.44-7.63-1.67-.82-3.63-.94-4.7.28-1.34,1.57-2.41,6.33-2.83,8.88-.24,1.45-1.19,3.02-3,2.75-1.28-.18-2.74-1.95-3.36-2.7-1.67-1.98-3.03-4.97-3.96-7.84C-1.53,4.91,10.66,11.02,18.31,11.88c4.02.45,7.82-.67,8.98-3.11-5.92.72-5.47,1.02-11.66-.89-3.6-1.09-7.35-2.31-11.3-.8-9.25,3.56-1.37,21.36,2.44,27.63,1.52,2.47,3.72,5.74,5.65,7.4.92.8,3.33,1.91,4.79.84,1.13-.84,1.1-3.52,1.37-5.07.27-1.7.71-3.55,1.19-5.18.51-1.82.71-3.48,2.65-3.82,5.3-.9,4.58,11.19,16.15,9.99,3.99-.41,6.99-1.93,10.86-2.61,4.76-.83,7.29.91,10.47,2.54,3,1.52,7.35,2.48,11.27,1.61,6.46-1.41,12.58-7.04,19.81-7,3.63.01,8.18,2.18,11.1,2.53"/>
      <path class="cls-2" d="m105.41,17.55c.55,0,1.08.14,1.6.42.52.28.93.68,1.22,1.2.29.52.44,1.07.44,1.63s-.14,1.1-.43,1.62c-.29.52-.69.92-1.2,1.2-.52.29-1.06.43-1.62.43s-1.1-.14-1.62-.43c-.52-.28-.92-.69-1.21-1.2-.29-.52-.43-1.06-.43-1.62s.15-1.11.44-1.63c.29-.52.7-.92,1.22-1.2.52-.28,1.05-.42,1.6-.42m0,.54c-.46,0-.9.12-1.34.35-.43.23-.77.57-1.02,1.01-.24.44-.37.89-.37,1.36s.12.92.36,1.35c.24.43.57.77,1.01,1s.88.36,1.35.36.92-.12,1.35-.36.77-.58,1-1c.24-.43.36-.88.36-1.35s-.12-.92-.37-1.36c-.24-.44-.58-.77-1.02-1.01-.43-.23-.88-.35-1.33-.35m-1.43,4.51h.56v-1.48h.33c.2,0,.35.04.45.12.15.11.35.38.59.82l.31.55h.69l-.43-.68c-.21-.33-.38-.56-.52-.69-.07-.07-.17-.13-.3-.18.3-.02.55-.13.73-.32.18-.19.28-.41.28-.67,0-.18-.05-.35-.16-.51-.11-.16-.26-.27-.44-.34-.18-.07-.48-.1-.89-.1h-1.2v3.5Zm.56-1.97h.69c.33,0,.55-.05.67-.15.12-.1.18-.23.18-.39,0-.1-.03-.2-.09-.28-.06-.08-.14-.14-.24-.18-.1-.04-.29-.06-.57-.06h-.64v1.05Z"/>
      <path class="cls-2" d="m45.01,22.15c.77.05.66.78.66,1.49,0,.54.03,1.5-.74,1.5l-3.57-.02v-2.96s3.65-.01,3.65-.01Zm-3.69,7.6l.03-3.24c.48.01,3.33.07,4.16-.04.52-.13.88-.22,1.22-.74.42-.72.35-3.17.19-3.76-.09-.47-.36-1.02-1.23-1.1l-5.7-.02v8.9h1.33Z"/>
      <path class="cls-2" d="m69.66,26.65v2.14c0,.71.71.93,1.16.95h2.15c.57,0,.77-.32,1.02-.65v.66h1.33s-.02-5.67-.02-5.67c0-.64-.4-.94-1.07-.94h-4.31s0,1.28,0,1.28h3.83c.15,0,.22.05.22.21v.73c-.02.09-.07.19-.19.19h-3.05c-.55,0-1.08.59-1.08,1.1m1.46.22h2.7c.1,0,.17.08.17.17v1.31c0,.1-.08.17-.17.17h-2.7c-.1,0-.17-.08-.17-.17v-1.31c0-.1.08-.17.17-.17"/>
      <path class="cls-2" d="m51.09,23.14c-.25,0-.46,0-.61.11l-.61.54-.02-.64h-1.25v6.6s1.28,0,1.28,0v-5.29s2.17-.03,2.17-.03c.21,0,.25.05.24.29v.84s1.35,0,1.35,0v-1.2c0-.82-.52-1.22-1.39-1.22h-1.18Z"/>
      <polygon class="cls-2" points="56.45 23.15 55.16 23.15 55.16 29.75 56.49 29.75 56.45 23.15"/>
      <polygon class="cls-2" points="56.45 20.85 55.16 20.85 55.16 22.22 56.49 22.21 56.45 20.85"/>
      <path class="cls-2" d="m60.98,23.14c-.26,0-.47,0-.62.11l-.62.54-.02-.64h-1.28v6.6s1.32,0,1.32,0v-5.29s2.35-.03,2.35-.03c.21,0,.26.05.25.29v5.03s1.41,0,1.41,0v-5.03c.02-.13,0-.23.23-.26l2.11-.02c.21,0,.26.05.25.29v5.02s1.39,0,1.39,0v-5.38c0-.82-.54-1.22-1.43-1.22h-1.33c-.26,0-.54,0-.69.12-.27.17-.47.44-.6.74-.13-.57-.63-.86-1.38-.86h-1.33Z"/>
      <polygon class="cls-2" points="76.43 23.14 77.79 23.14 79.8 28.11 81.82 23.14 83.18 23.14 80.5 29.75 80.47 29.75 79.14 29.75 79.11 29.75 76.43 23.14"/>
      <polygon class="cls-2" points="85.59 23.15 84.3 23.15 84.3 29.75 85.62 29.75 85.59 23.15"/>
      <polygon class="cls-2" points="85.59 20.85 84.3 20.85 84.3 22.22 85.62 22.21 85.59 20.85"/>
      <path class="cls-2" d="m90.15,21.09h-1.33s0,2.07,0,2.07h-1.63v1.3h1.64v4.35c0,.64.41.94,1.08.94h2.45s0-1.28,0-1.28h-1.97c-.15,0-.23-.05-.22-.21v-3.79s2.18,0,2.18,0v-1.32s-2.19.01-2.19.01v-2.06Z"/>
      <path class="cls-2" d="m94.24,26.65v2.14c0,.71.71.93,1.16.95h2.15c.57,0,.77-.32,1.02-.65v.66h1.33s-.02-5.67-.02-5.67c0-.64-.4-.94-1.07-.94h-4.31s0,1.28,0,1.28h3.83c.15,0,.22.05.22.21v.73c-.02.09-.07.19-.19.19h-3.05c-.55,0-1.08.59-1.08,1.1m1.46.22h2.7c.1,0,.17.08.17.17v1.31c0,.1-.08.17-.17.17h-2.7c-.1,0-.17-.08-.17-.17v-1.31c0-.1.08-.17.17-.17"/>
    </g>
  </g>
</svg>